<?xml version="1.0" standalone="no"?><svg xmlns="http://www.w3.org/2000/svg" viewBox="0 0 1440 320"><path fill="#5d5d5e" fill-opacity="1" d="M0,96L12.6,96C25.3,96,51,96,76,122.7C101.1,149,126,203,152,192C176.8,181,202,107,227,80C252.6,53,278,75,303,112C328.4,149,354,203,379,218.7C404.2,235,429,213,455,202.7C480,192,505,192,531,170.7C555.8,149,581,107,606,122.7C631.6,139,657,213,682,256C707.4,299,733,309,758,298.7C783.2,288,808,256,834,218.7C858.9,181,884,139,909,128C934.7,117,960,139,985,144C1010.5,149,1036,139,1061,144C1086.3,149,1112,171,1137,176C1162.1,181,1187,171,1213,170.7C1237.9,171,1263,181,1288,192C1313.7,203,1339,213,1364,208C1389.5,203,1415,181,1427,170.7L1440,160L1440,0L1427.4,0C1414.7,0,1389,0,1364,0C1338.9,0,1314,0,1288,0C1263.2,0,1238,0,1213,0C1187.4,0,1162,0,1137,0C1111.6,0,1086,0,1061,0C1035.8,0,1011,0,985,0C960,0,935,0,909,0C884.2,0,859,0,834,0C808.4,0,783,0,758,0C732.6,0,707,0,682,0C656.8,0,632,0,606,0C581.1,0,556,0,531,0C505.3,0,480,0,455,0C429.5,0,404,0,379,0C353.7,0,328,0,303,0C277.9,0,253,0,227,0C202.1,0,177,0,152,0C126.3,0,101,0,76,0C50.5,0,25,0,13,0L0,0Z"></path></svg>