<svg xmlns="http://www.w3.org/2000/svg" viewBox="0 0 1440 320"><path fill="#cad5ca" fill-opacity="1" d="M0,128L26.7,154.7C53.3,181,107,235,160,213.3C213.3,192,267,96,320,80C373.3,64,427,128,480,170.7C533.3,213,587,235,640,234.7C693.3,235,747,213,800,186.7C853.3,160,907,128,960,106.7C1013.3,85,1067,75,1120,106.7C1173.3,139,1227,213,1280,218.7C1333.3,224,1387,160,1413,128L1440,96L1440,320L1413.3,320C1386.7,320,1333,320,1280,320C1226.7,320,1173,320,1120,320C1066.7,320,1013,320,960,320C906.7,320,853,320,800,320C746.7,320,693,320,640,320C586.7,320,533,320,480,320C426.7,320,373,320,320,320C266.7,320,213,320,160,320C106.7,320,53,320,27,320L0,320Z"></path></svg>